<?xml version="1.0" encoding="utf-8"?>
<!-- Generator: Adobe Illustrator 22.0.1, SVG Export Plug-In . SVG Version: 6.00 Build 0)  -->
<svg version="1.1" id="Camada_1" xmlns="http://www.w3.org/2000/svg" xmlns:xlink="http://www.w3.org/1999/xlink" x="0px" y="0px"
	 viewBox="0 0 23.3 23.3" style="enable-background:new 0 0 23.3 23.3;" xml:space="preserve">
<style type="text/css">
	.st0{opacity:0.4;}
	.st1{fill:#1A1A1A;}
	.st2{fill-rule:evenodd;clip-rule:evenodd;fill:#FFFFFF;}
</style>
<g>
	<g class="st0">
		<path class="st1" d="M23.3,11.7c0,6.4-5.2,11.7-11.6,11.7C5.2,23.3,0,18.1,0,11.7C0,5.2,5.2,0,11.7,0C18.1,0,23.3,5.2,23.3,11.7z"
			/>
	</g>
	<path class="st2" d="M16.3,5.3c-3.1,0-6.2,0-9.3,0C5.9,5.3,5.3,5.9,5.3,7c0,1.5,0,3.1,0,4.6c0,1.6,0,3.1,0,4.7
		C5.3,17.4,5.9,18,7,18c3.1,0,6.3,0,9.4,0c1.1,0,1.7-0.6,1.7-1.7c0-3.1,0-6.2,0-9.3C18,5.9,17.4,5.3,16.3,5.3z M15.3,6.8
		c1.2,0,1.2,0,1.2,1.3c0,1.2,0,1.2-1.2,1.2c-1.2,0-1.2,0-1.2-1.2C14.1,6.8,14.1,6.8,15.3,6.8z M11.7,9.2c1.3,0,2.5,1.1,2.4,2.5
		c0,1.3-1.2,2.5-2.5,2.4c-1.3,0-2.5-1.2-2.4-2.5C9.2,10.3,10.3,9.2,11.7,9.2z M16.6,15.8c0,0.6-0.2,0.7-0.8,0.7c-1.4,0-2.8,0-4.1,0
		c-1.4,0-2.8,0-4.1,0c-0.6,0-0.8-0.2-0.8-0.7c0-1.5,0-3.1,0-4.6c0-0.4,0.1-0.5,0.5-0.5c0.6,0,0.6,0,0.5,0.6c-0.2,2,1.1,3.9,3.1,4.2
		c2,0.4,4-0.8,4.5-2.7c0.2-0.6,0.2-1.2,0.1-1.8c0-0.2,0-0.3,0.2-0.3c0.9-0.1,0.9-0.1,0.9,0.8C16.6,12.9,16.6,14.4,16.6,15.8z"/>
</g>
</svg>
