<?xml version="1.0" encoding="utf-8"?>
<!-- Generator: Adobe Illustrator 22.0.1, SVG Export Plug-In . SVG Version: 6.00 Build 0)  -->
<svg version="1.1" id="Camada_1" xmlns="http://www.w3.org/2000/svg" xmlns:xlink="http://www.w3.org/1999/xlink" x="0px" y="0px"
	 viewBox="0 0 23.2 23.2" style="enable-background:new 0 0 23.2 23.2;" xml:space="preserve">
<style type="text/css">
	.st0{opacity:0.4;}
	.st1{fill:#1A1A1A;}
	.st2{fill:#FFFFFF;}
</style>
<g>
	<g class="st0">
		<path class="st1" d="M23.2,11.6c0,6.4-5.2,11.6-11.6,11.6C5.2,23.2,0,18,0,11.6C0,5.2,5.2,0,11.6,0C18,0,23.2,5.2,23.2,11.6z"/>
	</g>
	<g>
		<path class="st2" d="M4.4,7.2V4.7H7v2.5H4.4z M4.4,18.5v-10H7v10H4.4z"/>
		<path class="st2" d="M18.8,18.5h-2.6v-5.1c0-1.1-0.1-1.8-0.2-2.1c-0.1-0.3-0.3-0.6-0.5-0.7c-0.3-0.2-0.6-0.3-0.9-0.3
			c-0.4,0-0.9,0.1-1.2,0.4c-0.4,0.2-0.6,0.6-0.7,1c-0.1,0.4-0.2,1.2-0.2,2.3v4.5H9.7v-10h2.5V10c0.9-1.1,2-1.7,3.3-1.7
			c0.6,0,1.1,0.1,1.6,0.3c0.5,0.2,0.8,0.5,1.1,0.8c0.2,0.3,0.4,0.7,0.5,1.1c0.1,0.4,0.1,1,0.1,1.8V18.5z"/>
	</g>
</g>
</svg>
