<?xml version="1.0" encoding="utf-8"?>
<!-- Generator: Adobe Illustrator 22.0.1, SVG Export Plug-In . SVG Version: 6.00 Build 0)  -->
<svg version="1.1" id="Camada_1" xmlns="http://www.w3.org/2000/svg" xmlns:xlink="http://www.w3.org/1999/xlink" x="0px" y="0px"
	 viewBox="0 0 22.8 22.8" style="enable-background:new 0 0 22.8 22.8;" xml:space="preserve">
<style type="text/css">
	.st0{opacity:0.4;}
	.st1{fill:#1A1A1A;}
	.st2{fill:#FFFFFF;}
</style>
<g>
	<g class="st0">
		<path class="st1" d="M22.8,11.4c0,6.3-5.1,11.4-11.4,11.4S0,17.7,0,11.4C0,5.1,5.1,0,11.4,0S22.8,5.1,22.8,11.4z"/>
	</g>
	<g>
		<path class="st2" d="M7.7,8.2h1.6V7.3c0-0.9,0.1-1.6,0.3-2c0.2-0.5,0.6-0.8,1.1-1.1c0.5-0.3,1.2-0.4,2-0.4c0.8,0,1.6,0.1,2.4,0.4
			l-0.4,2C14.2,6,13.8,6,13.4,6c-0.4,0-0.7,0.1-0.9,0.3c-0.2,0.2-0.3,0.6-0.3,1.1v0.8h2.2v2.3h-2.2V19H9.3v-8.6H7.7V8.2z"/>
	</g>
</g>
</svg>
